<?xml version="1.0" encoding="UTF-8" standalone="no"?>
<!DOCTYPE svg PUBLIC "-//W3C//DTD SVG 1.1//EN"
 "http://www.w3.org/Graphics/SVG/1.1/DTD/svg11.dtd">
<!-- Generated by graphviz version 2.40.1 (20161225.0304)
 -->
<!-- Title: heap Pages: 1 -->
<svg width="314pt" height="216pt"
 viewBox="0.00 0.00 314.00 216.08" xmlns="http://www.w3.org/2000/svg" xmlns:xlink="http://www.w3.org/1999/xlink">
<g id="graph0" class="graph" transform="scale(1 1) rotate(0) translate(4 212.08)">
<title>heap</title>
<polygon fill="#ffffff" stroke="transparent" points="-4,4 -4,-212.08 310,-212.08 310,4 -4,4"/>
<!-- p1 -->
<g id="node1" class="node">
<title>p1</title>
<polygon fill="none" stroke="#000000" points="198,-204 144,-204 144,-168 198,-168 198,-204"/>
<text text-anchor="middle" x="171" y="-181.8" font-family="Times,serif" font-size="14.00" fill="#000000">2</text>
</g>
<!-- p2_1 -->
<g id="node2" class="node">
<title>p2_1</title>
<polygon fill="none" stroke="#000000" points="162,-149 108,-149 108,-113 162,-113 162,-149"/>
<text text-anchor="middle" x="135" y="-126.8" font-family="Times,serif" font-size="14.00" fill="#000000">3</text>
</g>
<!-- p1&#45;&#45;p2_1 -->
<g id="edge1" class="edge">
<title>p1&#45;&#45;p2_1</title>
<path fill="none" stroke="#000000" d="M159.2123,-167.9909C155.2751,-161.9758 150.8859,-155.2702 146.9375,-149.2378"/>
</g>
<!-- p2_2 -->
<g id="node3" class="node">
<title>p2_2</title>
<polygon fill="none" stroke="#000000" points="234,-149 180,-149 180,-113 234,-113 234,-149"/>
<text text-anchor="middle" x="207" y="-126.8" font-family="Times,serif" font-size="14.00" fill="#000000">6</text>
</g>
<!-- p1&#45;&#45;p2_2 -->
<g id="edge2" class="edge">
<title>p1&#45;&#45;p2_2</title>
<path fill="none" stroke="#000000" d="M182.7877,-167.9909C186.7249,-161.9758 191.1141,-155.2702 195.0625,-149.2378"/>
</g>
<!-- p3_1_1 -->
<g id="node4" class="node">
<title>p3_1_1</title>
<polygon fill="none" stroke="#000000" points="90,-95 36,-95 36,-59 90,-59 90,-95"/>
<text text-anchor="middle" x="63" y="-72.8" font-family="Times,serif" font-size="14.00" fill="#000000">4</text>
</g>
<!-- p2_1&#45;&#45;p3_1_1 -->
<g id="edge3" class="edge">
<title>p2_1&#45;&#45;p3_1_1</title>
<path fill="none" stroke="#000000" d="M110.6241,-112.7181C103.1175,-107.0882 94.8557,-100.8917 87.3508,-95.2631"/>
</g>
<!-- p3_1_2 -->
<g id="node5" class="node">
<title>p3_1_2</title>
<polygon fill="none" stroke="#000000" points="162,-95 108,-95 108,-59 162,-59 162,-95"/>
<text text-anchor="middle" x="135" y="-72.8" font-family="Times,serif" font-size="14.00" fill="#000000">5</text>
</g>
<!-- p2_1&#45;&#45;p3_1_2 -->
<g id="edge4" class="edge">
<title>p2_1&#45;&#45;p3_1_2</title>
<path fill="none" stroke="#000000" d="M135,-112.7181C135,-107.0882 135,-100.8917 135,-95.2631"/>
</g>
<!-- p3_2_1 -->
<g id="node6" class="node">
<title>p3_2_1</title>
<polygon fill="none" stroke="#000000" points="234,-95 180,-95 180,-59 234,-59 234,-95"/>
<text text-anchor="middle" x="207" y="-72.8" font-family="Times,serif" font-size="14.00" fill="#000000">8</text>
</g>
<!-- p2_2&#45;&#45;p3_2_1 -->
<g id="edge5" class="edge">
<title>p2_2&#45;&#45;p3_2_1</title>
<path fill="none" stroke="#000000" d="M207,-112.7181C207,-107.0882 207,-100.8917 207,-95.2631"/>
</g>
<!-- p3_2_2 -->
<g id="node7" class="node">
<title>p3_2_2</title>
<polygon fill="none" stroke="#000000" points="306,-95 252,-95 252,-59 306,-59 306,-95"/>
<text text-anchor="middle" x="279" y="-72.8" font-family="Times,serif" font-size="14.00" fill="#000000">10</text>
</g>
<!-- p2_2&#45;&#45;p3_2_2 -->
<g id="edge6" class="edge">
<title>p2_2&#45;&#45;p3_2_2</title>
<path fill="none" stroke="#000000" d="M231.3759,-112.7181C238.8825,-107.0882 247.1443,-100.8917 254.6492,-95.2631"/>
</g>
<!-- p4_1_1_1 -->
<g id="node8" class="node">
<title>p4_1_1_1</title>
<polygon fill="none" stroke="#000000" points="54,-40 0,-40 0,-4 54,-4 54,-40"/>
<text text-anchor="middle" x="27" y="-17.8" font-family="Times,serif" font-size="14.00" fill="#000000">7</text>
</g>
<!-- p3_1_1&#45;&#45;p4_1_1_1 -->
<g id="edge7" class="edge">
<title>p3_1_1&#45;&#45;p4_1_1_1</title>
<path fill="none" stroke="#000000" d="M51.2123,-58.9909C47.2751,-52.9758 42.8859,-46.2702 38.9375,-40.2378"/>
</g>
<!-- p4_1_1_2 -->
<g id="node9" class="node">
<title>p4_1_1_2</title>
<polygon fill="none" stroke="#000000" points="126,-40 72,-40 72,-4 126,-4 126,-40"/>
<text text-anchor="middle" x="99" y="-17.8" font-family="Times,serif" font-size="14.00" fill="#000000">11</text>
</g>
<!-- p3_1_1&#45;&#45;p4_1_1_2 -->
<g id="edge8" class="edge">
<title>p3_1_1&#45;&#45;p4_1_1_2</title>
<path fill="none" stroke="#000000" d="M74.7877,-58.9909C78.7249,-52.9758 83.1141,-46.2702 87.0625,-40.2378"/>
</g>
</g>
</svg>
